<?xml version="1.0" encoding="UTF-8" standalone="no"?>
<!-- Created with Inkscape (http://www.inkscape.org/) -->

<svg
   xmlns:dc="http://purl.org/dc/elements/1.1/"
   xmlns:cc="http://creativecommons.org/ns#"
   xmlns:rdf="http://www.w3.org/1999/02/22-rdf-syntax-ns#"
   xmlns:svg="http://www.w3.org/2000/svg"
   xmlns="http://www.w3.org/2000/svg"
   xmlns:sodipodi="http://sodipodi.sourceforge.net/DTD/sodipodi-0.dtd"
   xmlns:inkscape="http://www.inkscape.org/namespaces/inkscape"
   width="210mm"
   height="297mm"
   viewBox="0 0 210 297"
   version="1.1"
   id="svg8"
   inkscape:version="0.92.2 (5c3e80d, 2017-08-06)"
   sodipodi:docname="eagle.svg"
   inkscape:export-filename="C:\Users\szyme\Documents\GitHub\Flying_Balloon\Images\Main Game\eagle.png"
   inkscape:export-xdpi="96"
   inkscape:export-ydpi="96">
  <defs
     id="defs2" />
  <sodipodi:namedview
     id="base"
     pagecolor="#ffffff"
     bordercolor="#666666"
     borderopacity="1.0"
     inkscape:pageopacity="0.0"
     inkscape:pageshadow="2"
     inkscape:zoom="1.979899"
     inkscape:cx="243.38949"
     inkscape:cy="945.61294"
     inkscape:document-units="mm"
     inkscape:current-layer="layer1"
     showgrid="false"
     inkscape:window-width="1920"
     inkscape:window-height="1001"
     inkscape:window-x="-9"
     inkscape:window-y="-9"
     inkscape:window-maximized="1" />
  <metadata
     id="metadata5">
    <rdf:RDF>
      <cc:Work
         rdf:about="">
        <dc:format>image/svg+xml</dc:format>
        <dc:type
           rdf:resource="http://purl.org/dc/dcmitype/StillImage" />
        <dc:title></dc:title>
      </cc:Work>
    </rdf:RDF>
  </metadata>
  <g
     inkscape:label="Layer 1"
     inkscape:groupmode="layer"
     id="layer1">
    <path
       style="fill:none;stroke:#000000;stroke-width:0.20518233px;stroke-linecap:butt;stroke-linejoin:miter;stroke-opacity:1"
       d="m 62.355014,31.751143 1.048606,-10.929829 1.930968,1.12513 1.514976,-2.732457 1.169911,2.290442 3.053461,-3.013739 -0.257639,3.174471 7.380626,-3.53612 1.943969,3.737037 -7.56273,10.063662 z"
       id="path4508"
       inkscape:connector-curvature="0"
       sodipodi:nodetypes="ccccccccccc" />
    <path
       style="fill:none;stroke:#000000;stroke-width:0.26458332px;stroke-linecap:butt;stroke-linejoin:miter;stroke-opacity:1"
       d="m 41.961315,37.080383 c -2.716249,-1.832013 -4.920114,-0.568231 -6.664133,1.367145 0.432964,-3.563323 2.110455,-5.55599 6.903149,-6.00522 z"
       id="path4504"
       inkscape:connector-curvature="0"
       sodipodi:nodetypes="cccc" />
    <path
       style="fill:none;stroke:#000000;stroke-width:0.26458332px;stroke-linecap:butt;stroke-linejoin:miter;stroke-opacity:1"
       d="m 42.200329,32.442308 c 0,0 3.648512,-3.662307 6.041819,-4.048183 3.536937,-0.570265 6.799949,2.443409 10.356696,2.873148 12.476633,1.507471 25.316906,1.093246 37.685001,-1.135896 4.373815,-0.788307 12.561665,-4.543583 12.561665,-4.543583 0.5387,0.5387 1.35406,1.461785 0.86863,1.737253 -4.44916,2.524762 -8.86033,2.383487 -12.494851,5.479024 -1.100442,0.937252 -1.712268,3.312855 -2.939964,4.075861 -2.346364,1.458252 -8.218538,1.069078 -8.218538,1.069078 l 6.815373,2.605878 1.202714,-1.336349 -0.200454,1.336349 c 0,0 1.870887,2.539061 0.935445,2.539061 -0.935445,0 -1.737254,-1.870887 -1.737254,-1.870887 l -0.801807,1.737251 -0.801809,-1.469982 -7.750815,-2.138156 c 0,0 -20.385968,1.392189 -27.729214,-0.601356 -1.360478,-0.369343 -2.36048,-2.479255 -3.942226,-2.071339 -3.027011,0.780634 -9.97923,0.648841 -10.089425,0.400903"
       id="path4506"
       inkscape:connector-curvature="0"
       sodipodi:nodetypes="csssssssccccsccccssc" />
    <path
       style="fill:#ffdd55;fill-opacity:1;stroke-width:0.25253814"
       d="m 134.3578,142.98635 c 0,-0.95352 1.42941,-5.5405 2.26364,-7.26401 3.44022,-7.10748 9.73573,-10.75087 21.31142,-12.3335 l 0.97291,-0.13301 -0.15228,2.19803 c -0.0838,1.20892 -0.27894,4.69816 -0.43376,7.75387 -0.15481,3.05571 -0.3073,5.58527 -0.33887,5.62125 -0.0316,0.036 -1.01285,-0.38092 -2.18064,-0.92644 -2.17897,-1.01788 -5.22042,-1.79062 -7.04775,-1.79062 -1.7242,0 -4.82442,0.75562 -6.69226,1.63111 -1.82244,0.85421 -4.19222,2.47352 -6.42482,4.39018 -0.70267,0.60325 -1.27759,0.98716 -1.27759,0.85314 z"
       id="path4512"
       inkscape:connector-curvature="0"
       transform="scale(0.26458333)" />
    <path
       style="fill:#6c5d53;fill-opacity:1;stroke-width:0.25253814"
       d="m 356.88075,161.70583 c -1.43628,-0.89507 -3.36173,-3.49821 -4.42881,-5.98762 -0.27038,-0.63076 -0.58611,-1.08842 -0.70164,-1.01702 -0.11552,0.0714 -0.81572,1.44238 -1.55599,3.04662 -0.74026,1.60425 -1.42027,2.91681 -1.51112,2.91681 -0.0909,0 -0.64261,-0.89602 -1.22612,-1.99116 -0.58352,-1.09514 -1.20203,-2.10615 -1.37447,-2.24668 -0.17244,-0.14054 -6.90477,-2.07042 -14.96074,-4.28862 l -14.64721,-4.0331 -5.68211,0.32899 c -18.89906,1.09423 -33.46241,1.45456 -52.40166,1.29653 -15.82092,-0.132 -19.70639,-0.27697 -28.66308,-1.06941 -7.65959,-0.67768 -15.82011,-2.02164 -18.53346,-3.05229 -1.29794,-0.49302 -2.54453,-1.38319 -5.55572,-3.96725 -3.42194,-2.93655 -4.74766,-3.58089 -7.35182,-3.5732 -1.11117,0.003 -3.32719,0.25116 -4.92449,0.55084 -5.78517,1.08539 -13.29151,1.59242 -23.23351,1.56936 -6.50868,-0.0151 -10.41266,-0.20655 -10.73241,-0.5263 -0.0863,-0.0863 0.0291,-3.89089 0.25662,-8.45456 l 0.4136,-8.2976 0.81914,-0.75761 c 7.93953,-7.34322 14.5486,-11.98462 19.47084,-13.67395 1.81546,-0.62306 2.366,-0.69306 5.42957,-0.69032 5.39777,0.005 8.10506,0.78851 19.01295,5.50368 9.70478,4.19509 12.51987,5.03694 19.5043,5.83274 l 3.79325,0.4322 0.85476,3.76007 0.85476,3.76007 h 4.3399 c 2.38694,0 6.21327,-0.0739 8.50295,-0.16418 l 4.16307,-0.16419 0.42801,-2.66089 c 0.23542,-1.46348 0.47579,-2.70865 0.53418,-2.76704 0.0584,-0.0584 2.41418,0.0241 5.2351,0.18334 18.74465,1.05801 43.36837,0.71934 63.46526,-0.87289 18.47032,-1.46337 42.38905,-4.77468 52.27539,-7.23702 9.01979,-2.24652 24.68179,-8.05227 40.0627,-14.850859 l 2.4345,-1.076089 0.97477,1.075258 c 1.42674,1.57386 2.38189,3.08524 2.30491,3.64722 -0.0812,0.59332 -2.80317,2.10278 -7.01227,3.88872 -3.99267,1.69411 -7.09322,2.78648 -14.85584,5.23394 -11.46175,3.61375 -16.2766,5.65976 -21.50965,9.14026 -4.5302,3.01302 -5.92887,4.58756 -9.201,10.35793 -3.32649,5.8662 -4.69012,7.5015 -7.29943,8.7536 -4.81484,2.31044 -14.01178,3.57591 -24.59515,3.38421 -4.63097,-0.0839 -4.8464,-0.0663 -4.96984,0.40636 -0.071,0.27173 -0.0835,0.5396 -0.0278,0.59526 0.16767,0.16767 25.70337,9.89551 25.99703,9.90359 0.14958,0.004 0.98842,-0.76297 1.86409,-1.70464 l 1.59213,-1.71211 -0.15706,1.51523 -0.15705,1.51523 1.44359,2.14657 c 1.46796,2.1828 2.72103,4.61618 3.02354,5.87151 0.14669,0.60876 0.0938,0.69437 -0.42824,0.69354 -0.32757,-5.1e-4 -0.93651,-0.2134 -1.3532,-0.47308 z"
       id="path4510"
       inkscape:connector-curvature="0"
       transform="scale(0.26458333)" />
    <path
       style="fill:#6c5d53;fill-opacity:1;stroke-width:0.12626907"
       d="m 357.55039,161.95294 c -1.44435,-0.51484 -3.31977,-2.76695 -4.80397,-5.76885 -0.37563,-0.75972 -0.73649,-1.41441 -0.80194,-1.45485 -0.22868,-0.14134 -0.51317,0.33095 -1.8566,3.08221 -0.74428,1.52425 -1.3982,2.74359 -1.45314,2.70963 -0.0549,-0.034 -0.56025,-0.86985 -1.1229,-1.85754 -0.56265,-0.98769 -1.0911,-1.88342 -1.17434,-1.9905 -0.20016,-0.25751 -0.9407,-0.59698 -1.41402,-0.6482 -0.20834,-0.0225 -0.40722,-0.0766 -0.44194,-0.1201 -0.10537,-0.13203 -7.97442,-2.34787 -23.73859,-6.68452 l -4.23001,-1.16366 -4.92449,0.27427 c -16.29186,0.90738 -25.18608,1.20994 -39.71163,1.35087 -8.53352,0.0828 -25.83471,-0.10072 -31.06219,-0.32948 -9.63697,-0.42173 -19.06394,-1.44646 -25.63262,-2.78631 -4.39662,-0.8968 -4.91237,-1.15487 -8.8823,-4.44454 -1.24463,-1.03136 -2.55673,-2.09699 -2.91578,-2.36808 -0.82847,-0.6255 -2.33461,-1.41462 -2.54551,-1.33369 -0.0886,0.034 -0.17891,0.01 -0.20076,-0.0532 -0.0534,-0.15453 -1.22537,-0.31282 -2.31257,-0.31233 -1.41361,6.3e-4 -2.84784,0.15902 -5.68211,0.62745 -6.68592,1.10503 -14.63252,1.55634 -24.81187,1.40916 -5.75505,-0.0832 -8.02079,-0.21634 -8.28775,-0.48697 -0.18281,-0.18532 -0.0932,-3.32631 0.33425,-11.7147 l 0.25415,-4.98763 0.43065,-0.3788 c 0.23685,-0.20835 1.36715,-1.21952 2.51177,-2.24706 7.41191,-6.65375 13.74497,-10.80163 18.49668,-12.11454 0.86957,-0.24026 1.2926,-0.26781 4.06419,-0.26465 5.73936,0.007 7.74053,0.57456 19.07327,5.41375 10.23709,4.37134 12.55715,5.05118 20.28583,5.94434 l 3.05675,0.35325 0.2464,1.07865 c 0.13551,0.59325 0.52143,2.29505 0.85759,3.78177 l 0.6112,2.70313 6.56599,-0.0947 c 6.69762,-0.0966 10.34669,-0.21002 10.46093,-0.32509 0.0351,-0.0354 0.26704,-1.2524 0.51538,-2.7045 0.24834,-1.45211 0.47381,-2.66248 0.50104,-2.68971 0.0272,-0.0272 1.85961,0.0398 4.07194,0.14897 7.62101,0.37606 9.47337,0.44243 16.20738,0.58071 6.52821,0.13406 21.4661,0.0522 21.46545,-0.11759 0,-0.0429 0.46861,-0.0582 1.04172,-0.034 1.76436,0.0746 12.10745,-0.33759 18.59341,-0.74105 12.33139,-0.76706 26.32478,-2.24974 40.0273,-4.24111 6.66759,-0.969 16.04566,-2.59538 16.22557,-2.81391 0.0347,-0.0422 0.27776,-0.0894 0.54008,-0.10488 1.1304,-0.0668 7.36225,-1.78548 11.32396,-3.12301 0.93466,-0.31556 1.74436,-0.57374 1.79934,-0.57374 0.055,0 0.1,1.28138 0.1,2.8475 v 2.8475 l -0.47351,0.19736 c -1.03768,0.43253 -4.27791,2.10525 -5.49577,2.83711 -1.66107,0.9982 -4.19082,2.73509 -5.11473,3.51171 -0.92737,0.77951 -2.47356,2.35084 -2.41145,2.45065 0.0263,0.0422 -0.079,0.16564 -0.23406,0.27422 -0.40101,0.28087 -1.90729,2.59454 -3.69718,5.67895 -3.18318,5.48532 -4.54784,7.16134 -6.75383,8.29476 -1.98867,1.02177 -4.54981,1.80846 -7.89181,2.42409 -4.41569,0.81342 -7.95032,1.09296 -14.71035,1.1634 -7.16967,0.0747 -6.91481,0.0679 -7.15031,0.18923 -0.21895,0.11274 -0.375,0.64689 -0.24869,0.85126 0.11802,0.19097 6.11444,2.5243 18.63695,7.25202 7.41711,2.80024 7.24794,2.74158 7.56206,2.62215 0.15058,-0.0572 0.94908,-0.80452 1.77446,-1.66062 1.03993,-1.07863 1.47768,-1.46085 1.42577,-1.24489 -0.0412,0.17141 -0.11458,0.83667 -0.16305,1.47837 l -0.0881,1.16673 1.26639,1.92686 c 1.89221,2.87909 3.1854,5.4567 3.1854,6.34917 0,0.25946 -0.0592,0.31109 -0.34724,0.30282 -0.19098,-0.005 -0.5177,-0.0707 -0.72604,-0.14499 z"
       id="path4514"
       inkscape:connector-curvature="0"
       transform="scale(0.26458333)" />
    <path
       style="fill:#6c5d53;fill-opacity:1;stroke-width:0.12626907"
       d="m 229.82922,126.95658 c 0,-0.0267 -0.34146,-1.54137 -0.75881,-3.36598 -0.41734,-1.8246 -0.72897,-3.3473 -0.6925,-3.38376 0.0772,-0.0773 8.41769,0.19786 10.92149,0.36024 5.43176,0.35226 7.92544,0.52936 8.18741,0.58144 0.21754,0.0433 0.27366,0.11572 0.21256,0.27446 -0.0457,0.11863 -0.27664,1.3459 -0.51329,2.72728 -0.23665,1.38138 -0.44595,2.52553 -0.46511,2.54255 -0.18306,0.16266 -16.89175,0.42358 -16.89175,0.26377 z"
       id="path4516"
       inkscape:connector-curvature="0"
       transform="scale(0.26458333)" />
    <path
       style="fill:#51463e;fill-opacity:1;stroke-width:0.05173531"
       d="m 65.582887,31.7101 c -0.531279,-0.01515 -3.2371,-0.166157 -3.249265,-0.181339 -0.01348,-0.01683 1.335668,-10.423488 1.35223,-10.430351 0.0084,-0.0035 0.407073,0.225545 0.885846,0.508983 l 0.870498,0.515343 0.101711,-0.117538 c 0.05595,-0.06465 0.312192,-0.483214 0.569441,-0.93015 0.257249,-0.446935 0.566008,-0.965677 0.686114,-1.152759 l 0.218384,-0.340149 0.508384,1.072788 c 0.279609,0.590033 0.526655,1.064416 0.54899,1.054185 0.02234,-0.01023 0.705958,-0.652646 1.519162,-1.427589 l 1.478554,-1.408987 -0.09162,0.795094 c -0.05039,0.437302 -0.127352,1.107035 -0.171016,1.488296 -0.04366,0.381261 -0.05004,0.693339 -0.01417,0.693505 0.03587,1.75e-4 0.957169,-0.444402 2.348273,-1.124556 l 5.271245,-2.577279 1.979633,2.925272 c 0.424173,0.626796 -0.303594,0.625064 -0.355165,0.735222 -0.06853,0.146458 -7.139529,9.026408 -7.941743,10.006011 -0.08396,0.102534 -4.018365,0.02938 -4.127737,0.02321 -0.07638,-0.0043 -2.134228,-0.119971 -2.38775,-0.127207 z"
       id="path4518"
       inkscape:connector-curvature="0"
       sodipodi:nodetypes="cccsccccccccccccscscccc" />
    <ellipse
       style="fill:#ebebeb;fill-opacity:1;stroke:#000000;stroke-width:0.35240558;stroke-opacity:1"
       id="path4520"
       cx="48.841602"
       cy="31.00436"
       rx="1.6501259"
       ry="1.6027559" />
    <ellipse
       style="fill:#000000;fill-opacity:1;stroke:none;stroke-width:0.3939968;stroke-opacity:1"
       id="path4522"
       cx="48.841606"
       cy="30.892948"
       rx="0.64964658"
       ry="0.61421132" />
  </g>
</svg>
